<svg width="230" height="205" viewBox="0 0 230 205" fill="none" xmlns="http://www.w3.org/2000/svg">
<path d="M130 41.5998C130 18.7038 111.391 0 88.5 0C65.6412 0 47 18.7038 47 41.5998V164.755H74.5272V127.637H102.473V205H130V41.5998ZM102.505 100.065H74.5593V41.5998C74.5593 33.9571 80.8697 27.6042 88.5322 27.6042C95.744 27.6042 101.668 33.1186 102.537 39.8907V100.065H102.505Z" fill="#297B40"/>
<path d="M230 75.2461V40.2839C229.157 17.7714 210.815 0 187.773 0C165.218 0 146.875 17.3843 146 39.8969V204H174.162V128.044H201.87V100.436H174.162V39.8646C175.005 33.0593 180.968 27.544 187.773 27.544C195.486 27.544 201.903 33.8979 201.903 41.5741V74.7946C201.903 74.3753 201.903 74.3753 202.324 74.3753V75.2139H230V75.2461Z" fill="#297B40"/>
<path d="M84 177.309H47.2641H41.34C34.5788 177.309 28.7834 171.318 27.9463 164.484V149.392V141.943V2C12.0414 7.57052 0.676121 22.3389 0 40.0544V141.911V149.36V164.452C0.837102 187.058 19.2533 205 41.7263 205H46.6523H46.8133H47.2641H84V177.309Z" fill="#297B40"/>
</svg>
